# xmcd
#
# Track frame offsets: 
#        150
#        16747
#        38325
#        52865
#        62265
#        81430
#        92932
#        108757
#        126982
#        140850
#        158420
#        176477
#        195812
#        210545
#        228917
#        249087
#        264972
#        277177
#        289465
#        302627
#        315540
#
# Disc length: 4438 seconds
#
# Revision: 3
# Processed by: cddbd v1.5.2PL0 Copyright (c) Steve Scherf et al.
# Submitted via: ExactAudioCopy v0.99pb4
#
DISCID=0f115415
DTITLE=The Pan Pipers - Pan Pipe Spirits
DYEAR=2001
DGENRE=Meditative
TTITLE0=Unchained Melody
TTITLE1=Have You Ever Really Loved A Woman
TTITLE2=Yesterday
TTITLE3=Lara's Theme
TTITLE4=Colors Of The Wind
TTITLE5=Autumn Dream
TTITLE6=Let It Be
TTITLE7=Dim All The Lights
TTITLE8=Don't Cry For Me Argentina
TTITLE9=Bacarolle
TTITLE10=Largo
TTITLE11=The Lonely Sherperd
TTITLE12=Un Jour D'Ete
TTITLE13=On The Radio
TTITLE14=Klavire Konzert No.1
TTITLE15=Dolannes Melody
TTITLE16=Beethoven 9 Sinfon
TTITLE17=Sleepwalk
TTITLE18=Forse
TTITLE19=Maybe
TTITLE20=Sailing
EXTD=
EXTT0=
EXTT1=
EXTT2=
EXTT3=
EXTT4=
EXTT5=
EXTT6=
EXTT7=
EXTT8=
EXTT9=
EXTT10=
EXTT11=
EXTT12=
EXTT13=
EXTT14=
EXTT15=
EXTT16=
EXTT17=
EXTT18=
EXTT19=
EXTT20=
PLAYORDER=
